<?xml version="1.0" encoding="UTF-8" standalone="no"?>
<svg
   xmlns:dc="http://purl.org/dc/elements/1.1/"
   xmlns:cc="http://creativecommons.org/ns#"
   xmlns:rdf="http://www.w3.org/1999/02/22-rdf-syntax-ns#"
   xmlns:svg="http://www.w3.org/2000/svg"
   xmlns="http://www.w3.org/2000/svg"
   xmlns:sodipodi="http://sodipodi.sourceforge.net/DTD/sodipodi-0.dtd"
   xmlns:inkscape="http://www.inkscape.org/namespaces/inkscape"
   sodipodi:docname="logo.svg"
   inkscape:version="1.0 (4035a4fb49, 2020-05-01)"
   id="svg8"
   version="1.1"
   viewBox="0 0 25.784101 31.698486"
   height="31.698486mm"
   width="25.784101mm">
  <defs
     id="defs2" />
  <sodipodi:namedview
     inkscape:window-maximized="1"
     inkscape:window-y="-9"
     inkscape:window-x="-9"
     inkscape:window-height="1001"
     inkscape:window-width="1920"
     inkscape:snap-global="false"
     inkscape:snap-nodes="false"
     inkscape:snap-others="false"
     showgrid="false"
     inkscape:document-rotation="0"
     inkscape:current-layer="layer1"
     inkscape:document-units="mm"
     inkscape:cy="56.787223"
     inkscape:cx="54.476947"
     inkscape:zoom="5.6568543"
     inkscape:pageshadow="2"
     inkscape:pageopacity="0.0"
     borderopacity="1.0"
     bordercolor="#666666"
     pagecolor="#ffffff"
     id="base" />
  <metadata
     id="metadata5">
    <rdf:RDF>
      <cc:Work
         rdf:about="">
        <dc:format>image/svg+xml</dc:format>
        <dc:type
           rdf:resource="http://purl.org/dc/dcmitype/StillImage" />
        <dc:title></dc:title>
      </cc:Work>
    </rdf:RDF>
  </metadata>
  <g
     transform="translate(-131.20259,-97.9275)"
     id="layer1"
     inkscape:groupmode="layer"
     inkscape:label="Calque 1">
    <g
       id="g959">
      <path
         style="fill:#b3b3b3;fill-opacity:1;stroke:#000000;stroke-width:0.148176;stroke-linecap:butt;stroke-linejoin:miter;stroke-miterlimit:4;stroke-dasharray:none;stroke-opacity:1"
         d="m 145.0194,108.30849 c 0,0 0.67608,0.17929 0.85971,0.18828 0.18358,0.009 0.96964,-0.10187 1.17531,-0.17653 0.20566,-0.0747 1.17542,-0.43259 1.4349,-0.69554 0.25947,-0.26295 0.64331,-0.66416 0.79721,-0.99351 0.15336,-0.32962 0.44895,-0.81475 0.25211,-1.45314 -0.19687,-0.6384 -0.3274,-1.25435 -0.92338,-1.80604 -0.59599,-0.55169 -1.75958,-1.36861 -2.21928,-1.60903 -0.45966,-0.24042 -1.8719,-1.03687 -2.03816,-1.17436 -0.16633,-0.13742 -0.83006,-0.63545 -1.02904,-0.83087 -0.19894,-0.19545 -1.10969,-1.13328 -1.18161,-1.23518 -0.0719,-0.10205 -0.30913,-0.4347 -0.30913,-0.4347 0,0 -0.12471,-0.13505 -0.18151,-0.0683 -0.057,0.0673 -0.11639,0.30419 -0.11098,0.38357 0.006,0.0795 0.26969,0.77489 0.31966,0.83239 0.0499,0.0575 0.46003,0.51377 0.49879,0.54042 0.0388,0.0267 0.91971,0.7542 0.91971,0.7542 0,0 -1.11029,-0.89449 -1.18455,-0.95479 -0.0743,-0.0602 -0.37268,-0.35354 -0.40867,-0.4044 -0.0359,-0.051 -0.28955,-0.34876 -0.28955,-0.34876 0,0 -0.057,-0.0608 -0.12008,0.0377 -0.0637,0.0983 -0.12024,0.42196 -0.12024,0.42196 0,0 0.21286,0.45803 0.42537,0.64272 0.21256,0.18466 0.97813,0.7388 0.97813,0.7388 L 141.279,99.96035 c 0,0 -0.0667,-0.0396 -0.12293,0.0623 -0.0559,0.10185 -0.074,0.34104 0.0297,0.46635 0.10379,0.12527 0.19655,0.36504 0.36146,0.45065 0.16472,0.086 1.39876,0.67908 1.39876,0.67908 0,0 -1.2801,-0.51279 -1.35387,-0.5559 -0.0738,-0.0429 -0.20936,-0.0636 -0.27344,4.9e-4 -0.0641,0.064 -0.0535,0.33357 0.0316,0.40748 0.085,0.074 0.14755,0.2141 0.2699,0.26286 0.12279,0.0479 0.93968,0.43738 0.93968,0.43738 l 0.7831,0.16953 c 0,0 -0.67149,-0.006 -1.2401,-0.17818 -0.56855,-0.17186 -0.5873,-0.0952 -0.5873,-0.0952 0,0 -0.0721,0.0261 -0.006,0.15931 0.0658,0.13326 0.17089,0.31037 0.37411,0.40534 0.20322,0.0949 0.92223,0.32853 1.03346,0.34629 0.11117,0.0178 0.5944,-0.0296 0.5944,-0.0296 0,0 -0.74726,0.13745 -0.83508,0.0879 -0.0879,-0.0494 -0.18831,0.0742 -0.18831,0.0742 0,0 -0.0138,0.13873 0.0494,0.16826 0.0632,0.0295 0.2321,0.14279 0.3513,0.19829 0.11923,0.0556 0.59432,0.0985 0.59432,0.0985 0,0 -0.29537,0.084 -0.34303,0.11292 -0.0478,0.029 -0.094,0.10977 -0.0772,0.22004 0.0168,0.1104 0.17696,0.27905 0.35497,0.33659 0.17801,0.0576 0.74904,0.0597 0.82848,0.0541 0.0796,-0.006 -0.29307,0.17042 -0.46132,0.21986 -0.16826,0.0494 -0.51418,0.3147 -0.58385,0.42729 -0.0702,0.11246 -0.13612,0.21814 -0.0796,0.26159 0.0561,0.0444 0.377,0.12502 0.48826,0.14271 0.11118,0.0178 0.85474,-0.12994 0.85474,-0.12994 0,0 -0.76094,0.40428 -0.9035,0.5084 -0.14258,0.10406 -0.36891,0.44233 -0.38157,0.48767 -0.0122,0.0456 0.003,0.12104 0.0635,0.17475 0.0602,0.0537 0.47939,0.0703 0.5794,0.0573 0.10005,-0.0129 0.59681,-0.19923 0.59681,-0.19923 0,0 -0.93008,0.41915 -0.97265,0.51026 -0.0426,0.0911 -0.21844,0.37605 -0.1376,0.42235 0.081,0.0462 0.43362,0.18653 0.48583,0.18443 0.0519,-0.001 1.2596,-0.52132 1.2596,-0.52132 0,0 -0.84328,0.56218 -0.87975,0.62197 -0.0365,0.0599 -0.11265,0.18641 -0.0594,0.23692 0.0531,0.0504 0.38128,0.15244 0.45037,0.15076 0.0692,-0.002 0.66742,-0.27723 0.66742,-0.27723 0,0 -0.25713,0.34941 -0.27953,0.41579 -0.022,0.0666 0.0668,0.31381 0.0668,0.31381 z"
         id="path34"
         sodipodi:nodetypes="cssscsssssscsssscsscscscccscccsccccccsssccccccscsssccscscsscsccccsccscc"
         inkscape:transform-center-x="0.98198271"
         inkscape:transform-center-y="-0.0046378115" />
      <g
         id="g944">
        <path
           sodipodi:nodetypes="ccccc"
           id="path10"
           d="m 135.50565,110.44913 12.56167,4.6104 -0.0668,14.36574 -12.51155,-5.39551 z"
           style="fill:none;fill-opacity:1;stroke:#000000;stroke-width:0.264583px;stroke-linecap:butt;stroke-linejoin:miter;stroke-opacity:1" />
        <path
           sodipodi:nodetypes="ccc"
           id="path14"
           d="m 148.04736,129.51702 8.80644,-7.24121 -0.13363,-13.99824"
           style="fill:none;fill-opacity:1;stroke:#000000;stroke-width:0.264583px;stroke-linecap:butt;stroke-linejoin:miter;stroke-opacity:1" />
        <path
           sodipodi:nodetypes="cccc"
           id="path16"
           d="m 135.44544,110.37056 9.24009,-5.83843 11.88086,3.79792 -8.49907,6.72948"
           style="fill:none;fill-opacity:1;stroke:#000000;stroke-width:0.264583px;stroke-linecap:butt;stroke-linejoin:miter;stroke-opacity:1" />
        <path
           id="path906"
           d="m 135.44544,110.37056 9.24009,-5.83843 11.88086,3.79792 -8.49907,6.72948 z"
           style="fill:#fff6d5;fill-opacity:1;stroke:none;stroke-width:0.264583px;stroke-linecap:butt;stroke-linejoin:miter;stroke-opacity:1" />
        <path
           id="path908"
           d="m 135.53023,110.60023 -0.0165,13.31423 12.41068,5.37961 0.0196,-14.17388 z"
           style="fill:#fff6d5;fill-opacity:1;stroke:none;stroke-width:0.26043px;stroke-linecap:butt;stroke-linejoin:miter;stroke-opacity:1" />
        <path
           id="path912"
           d="m 148.12424,129.29079 0.0637,-14.16162 8.41125,-6.66559 0.13804,13.76321 z"
           style="fill:#fff6d5;fill-opacity:1;stroke:none;stroke-width:0.264583px;stroke-linecap:butt;stroke-linejoin:miter;stroke-opacity:1" />
      </g>
      <path
         inkscape:transform-center-y="0.084968969"
         inkscape:transform-center-x="0.99284135"
         sodipodi:nodetypes="cssscsssssscsssscsscscscccscccsccccccsssccccccscsssccscscsscsccccsccscc"
         id="path34-2"
         d="m 135.46735,114.9116 c 0,0 0.68199,0.15537 0.86582,0.15788 0.18378,0.003 0.96546,-0.13584 1.16837,-0.2178 0.20288,-0.082 1.15946,-0.47371 1.40951,-0.74564 0.25005,-0.27192 0.61952,-0.6864 0.76172,-1.02096 0.14166,-0.33483 0.41999,-0.83006 0.20078,-1.46112 -0.21923,-0.63108 -0.37137,-1.24205 -0.98641,-1.77241 -0.61505,-0.53035 -1.80669,-1.30579 -2.27457,-1.52988 -0.46784,-0.22408 -1.90725,-0.9703 -2.07825,-1.10185 -0.17107,-0.13147 -0.85192,-0.60582 -1.05765,-0.79411 -0.20572,-0.18832 -1.14893,-1.0935 -1.22438,-1.1928 -0.0754,-0.0995 -0.32426,-0.42355 -0.32426,-0.42355 0,0 -0.12939,-0.13057 -0.18379,-0.0619 -0.0545,0.0693 -0.10561,0.3081 -0.0974,0.38724 0.009,0.0792 0.29682,0.76491 0.34879,0.82062 0.0519,0.0557 0.47783,0.49725 0.51751,0.52251 0.0397,0.0253 0.9457,0.72134 0.9457,0.72134 0,0 -1.1411,-0.85483 -1.21745,-0.91248 -0.0764,-0.0575 -0.38489,-0.34019 -0.42265,-0.38975 -0.0377,-0.0496 -0.30165,-0.33834 -0.30165,-0.33834 0,0 -0.059,-0.0587 -0.11868,0.0419 -0.0602,0.10047 -0.1053,0.42593 -0.1053,0.42593 0,0 0.22886,0.45025 0.44774,0.62734 0.21893,0.17706 1.00354,0.70389 1.00354,0.70389 l -1.30908,-0.65734 c 0,0 -0.068,-0.0372 -0.12066,0.0666 -0.0523,0.1038 -0.0619,0.34343 0.0461,0.46501 0.10813,0.12153 0.20928,0.35789 0.3771,0.43764 0.16764,0.0801 1.4218,0.6294 1.4218,0.6294 0,0 -1.29736,-0.4674 -1.3726,-0.50787 -0.0753,-0.0403 -0.21146,-0.0562 -0.27325,0.0101 -0.0618,0.0662 -0.0417,0.33524 0.0464,0.40605 0.0875,0.071 0.15498,0.20877 0.27898,0.2532 0.12441,0.0435 0.9545,0.40402 0.9545,0.40402 l 0.78859,0.14184 c 0,0 -0.67127,0.0177 -1.24561,-0.13439 -0.57425,-0.15173 -0.59029,-0.0745 -0.59029,-0.0745 0,0 -0.0712,0.0287 -3.6e-4,0.15944 0.0704,0.13085 0.18172,0.30414 0.38816,0.39191 0.20642,0.0877 0.93322,0.29584 1.04501,0.30967 0.11172,0.0139 0.59298,-0.0505 0.59298,-0.0505 0,0 -0.74195,0.16376 -0.83139,0.11774 -0.0895,-0.0463 -0.18559,0.0808 -0.18559,0.0808 0,0 -0.009,0.13913 0.0553,0.16642 0.0642,0.0273 0.23698,0.13453 0.35806,0.1858 0.12113,0.0514 0.59743,0.0775 0.59743,0.0775 0,0 -0.29223,0.0944 -0.33884,0.12499 -0.0467,0.0306 -0.0901,0.11297 -0.0694,0.22261 0.021,0.10971 0.18667,0.27265 0.3666,0.32389 0.17994,0.0513 0.75068,0.0333 0.82986,0.0249 0.0794,-0.008 -0.28688,0.18063 -0.45328,0.23596 -0.16641,0.0553 -0.50278,0.33261 -0.56844,0.4476 -0.0662,0.11485 -0.12835,0.22279 -0.0703,0.26422 0.0577,0.0424 0.38116,0.11167 0.49298,0.12543 0.11174,0.0139 0.84963,-0.15997 0.84963,-0.15997 0,0 -0.74623,0.43082 -0.88503,0.5399 -0.13883,0.10902 -0.3531,0.45504 -0.36416,0.5008 -0.0106,0.046 0.007,0.12087 0.0696,0.17241 0.062,0.0515 0.48156,0.0534 0.58106,0.0369 0.0995,-0.0166 0.58942,-0.22011 0.58942,-0.22011 0,0 -0.91474,0.45163 -0.95407,0.54418 -0.0394,0.0926 -0.20507,0.38351 -0.12265,0.42693 0.0825,0.0434 0.43992,0.17116 0.49203,0.16722 0.0519,-0.003 1.24045,-0.56536 1.24045,-0.56536 0,0 -0.82295,0.59153 -0.8573,0.65257 -0.0344,0.0612 -0.10601,0.19026 -0.0511,0.23886 0.0548,0.0485 0.38641,0.13892 0.4554,0.1348 0.0691,-0.005 0.65726,-0.30054 0.65726,-0.30054 0,0 -0.24467,0.35823 -0.26472,0.42536 -0.0197,0.0673 0.0777,0.31128 0.0777,0.31128 z"
         style="fill:#b3b3b3;fill-opacity:1;stroke:#000000;stroke-width:0.148176;stroke-linecap:butt;stroke-linejoin:miter;stroke-miterlimit:4;stroke-dasharray:none;stroke-opacity:1" />
    </g>
  </g>
</svg>
